<svg xmlns="http://www.w3.org/2000/svg" width="1005" height="600"><rect width="1005" height="600" x="0" y="0" fill="#FFFFFF" id="backgorund"/><clipPath id="serieClipPath"><rect x="0" y="0" width="805" height="600"/></clipPath><g transform="translate(0,0)" clip-path="url(#serieClipPath)"><g transform="translate(305, 315)"><g id="axes"><circle r="285" fill="none" stroke="LightGray" class="grid" id="24000000"/><circle r="261" fill="none" stroke="LightGray" class="grid" id="22000000"/><circle r="238" fill="none" stroke="LightGray" class="grid" id="20000000"/><circle r="214" fill="none" stroke="LightGray" class="grid" id="18000000"/><circle r="190" fill="none" stroke="LightGray" class="grid" id="16000000"/><circle r="166" fill="none" stroke="LightGray" class="grid" id="14000000"/><circle r="143" fill="none" stroke="LightGray" class="grid" id="12000000"/><circle r="119" fill="none" stroke="LightGray" class="grid" id="10000000"/><circle r="95" fill="none" stroke="LightGray" class="grid" id="8000000"/><circle r="71" fill="none" stroke="LightGray" class="grid" id="6000000"/><circle r="48" fill="none" stroke="LightGray" class="grid" id="4000000"/><circle r="24" fill="none" stroke="LightGray" class="grid" id="2000000"/><circle r="0" fill="none" stroke="LightGray" class="grid" id="0"/><g><line x1="0" y1="0" x2="1.7451216887849784e-14" y2="-285" stroke="black"/><text text-anchor="middle" dy="0.35em" x="1.806354028742346e-14" y="-295" font-family="Arial, sans-serif" font-size="12">Military_Casualties</text></g><g><line x1="0" y1="0" x2="246.81724007856502" y2="142.49999999999994" stroke="black"/><text text-anchor="middle" dy="0.35em" x="255.47749411640942" y="147.49999999999994" font-family="Arial, sans-serif" font-size="12">Civilian_Casualties</text></g><g><line x1="0" y1="0" x2="-246.81724007856496" y2="142.50000000000009" stroke="black"/><text text-anchor="middle" dy="0.35em" x="-255.47749411640936" y="147.50000000000009" font-family="Arial, sans-serif" font-size="12">Total_Casualties</text></g><g id="y axis" fill="none" font-size="10" font-family="sans-serif" text-anchor="end" transform="translate(0, -285)"><path class="domain" stroke="currentColor" d="M-6,0H0V285H-6"/><g class="tick" opacity="1" transform="translate(0,0)"><line stroke="currentColor" x2="-6"/><text fill="currentColor" x="-9" dy="0.32em">24,000,000</text></g><g class="tick" opacity="1" transform="translate(0,24)"><line stroke="currentColor" x2="-6"/><text fill="currentColor" x="-9" dy="0.32em">22,000,000</text></g><g class="tick" opacity="1" transform="translate(0,47)"><line stroke="currentColor" x2="-6"/><text fill="currentColor" x="-9" dy="0.32em">20,000,000</text></g><g class="tick" opacity="1" transform="translate(0,71)"><line stroke="currentColor" x2="-6"/><text fill="currentColor" x="-9" dy="0.32em">18,000,000</text></g><g class="tick" opacity="1" transform="translate(0,95)"><line stroke="currentColor" x2="-6"/><text fill="currentColor" x="-9" dy="0.32em">16,000,000</text></g><g class="tick" opacity="1" transform="translate(0,119)"><line stroke="currentColor" x2="-6"/><text fill="currentColor" x="-9" dy="0.32em">14,000,000</text></g><g class="tick" opacity="1" transform="translate(0,143)"><line stroke="currentColor" x2="-6"/><text fill="currentColor" x="-9" dy="0.32em">12,000,000</text></g><g class="tick" opacity="1" transform="translate(0,166)"><line stroke="currentColor" x2="-6"/><text fill="currentColor" x="-9" dy="0.32em">10,000,000</text></g><g class="tick" opacity="1" transform="translate(0,190)"><line stroke="currentColor" x2="-6"/><text fill="currentColor" x="-9" dy="0.32em">8,000,000</text></g><g class="tick" opacity="1" transform="translate(0,214)"><line stroke="currentColor" x2="-6"/><text fill="currentColor" x="-9" dy="0.32em">6,000,000</text></g><g class="tick" opacity="1" transform="translate(0,238)"><line stroke="currentColor" x2="-6"/><text fill="currentColor" x="-9" dy="0.32em">4,000,000</text></g><g class="tick" opacity="1" transform="translate(0,261)"><line stroke="currentColor" x2="-6"/><text fill="currentColor" x="-9" dy="0.32em">2,000,000</text></g><g class="tick" opacity="1" transform="translate(0,285)"><line stroke="currentColor" x2="-6"/><text fill="currentColor" x="-9" dy="0.32em">0</text></g></g></g><g id="radars"><g id="0"><path d="M156.7505980849834,90.49999999999996C135.04336444617553,144.50937905687087,-228.28264454740454,180.2459818093019,-246.81724007856494,142.5000000000001C-263.97824586416635,107.55135431072007,-71.15343579419591,-107.83544801057927,0,-104C60.21269566291598,-100.75430060102896,173.7587176443425,48.18240248339381,156.7505980849834,90.49999999999996" stroke="#e377c2" fill="#e377c2" fill-opacity="0.5"/><g id="dots"><circle cx="6.368163355566236e-15" cy="-104" r="1" stroke="none" fill="#e377c2"/><circle cx="156.7505980849834" cy="90.49999999999997" r="1" stroke="none" fill="#e377c2"/><circle cx="-246.81724007856496" cy="142.50000000000009" r="1" stroke="none" fill="#e377c2"/></g></g><g id="1"><path d="M23.382685902179844,13.499999999999995C13.114391818297618,33.079338711867564,-67.88264108617037,52.30845987117837,-74.4781847254617,43.000000000000036C-81.80980018436358,32.65270309432271,-16.501246213372685,-61.65201777040186,0,-59C12.815421900146701,-56.94035394812526,32.247375687794545,-3.402979450171896,23.382685902179844,13.499999999999995" stroke="#2ca02c" fill="#2ca02c" fill-opacity="0.5"/><g id="dots"><circle cx="3.6127080574846916e-15" cy="-59" r="1" stroke="none" fill="#2ca02c"/><circle cx="23.382685902179844" cy="13.499999999999995" r="1" stroke="none" fill="#2ca02c"/><circle cx="-74.47818472546172" cy="43.00000000000003" r="1" stroke="none" fill="#2ca02c"/></g></g><g id="2"><path d="M174.93713156445662,100.99999999999996C163.29147741516186,137.53319585954603,-194.65842165012998,150.77738360740963,-206.11404610069633,119.0000000000001C-215.53301979224398,92.87219339495633,-65.65364513119809,-36.64302644679685,0,-36C60.94113681767436,-35.40312891091848,183.8250572058861,73.11798289037394,174.93713156445662,100.99999999999996" stroke="#1f77b4" fill="#1f77b4" fill-opacity="0.5"/><g id="dots"><circle cx="2.204364238465236e-15" cy="-36" r="1" stroke="none" fill="#1f77b4"/><circle cx="174.93713156445662" cy="100.99999999999997" r="1" stroke="none" fill="#1f77b4"/><circle cx="-206.11404610069636" cy="119.00000000000009" r="1" stroke="none" fill="#1f77b4"/></g></g><g id="3"><path d="M8.660254037844387,4.999999999999998C4.0594746357517515,13.561117319822978,-29.200757475065966,22.32739666762286,-32.04293994002422,18.500000000000018C-35.28067885186968,14.139931188579693,-6.7636579301045385,-28.19330827883481,0,-27C5.220303548377015,-26.078984847151677,12.705411214710079,-2.52721705207587,8.660254037844387,4.999999999999998" stroke="#9467bd" fill="#9467bd" fill-opacity="0.5"/><g id="dots"><circle cx="1.6532731788489269e-15" cy="-27" r="1" stroke="none" fill="#9467bd"/><circle cx="8.660254037844387" cy="4.999999999999998" r="1" stroke="none" fill="#9467bd"/><circle cx="-32.042939940024226" cy="18.50000000000001" r="1" stroke="none" fill="#9467bd"/></g></g><g id="4"><path d="M0,0C-0.7216878364870318,1.2500000000000002,-3.983479690075204,2.846647328846989,-4.330127018922192,2.500000000000002C-4.786340560077108,2.0437864588450854,-0.6231992867680737,-5.1669857456131565,0,-5C0.47352905735900275,-4.873118271487985,0.7216878364870318,-1.2500000000000002,0,0" stroke="#bcbd22" fill="#bcbd22" fill-opacity="0.5"/><g id="dots"><circle cx="3.061616997868383e-16" cy="-5" r="1" stroke="none" fill="#bcbd22"/><circle cx="0" cy="0" r="1" stroke="none" fill="#bcbd22"/><circle cx="-4.330127018922193" cy="2.5000000000000018" r="1" stroke="none" fill="#bcbd22"/></g></g><g id="5"><path d="M0.8660254037844387,0.4999999999999998C0.1443375672974066,1.7500000000000007,-3.8838607189211616,3.022033373478461,-4.330127018922192,2.500000000000002C-4.886695982219034,1.8489367817319216,-0.8421217681382315,-5.156471252038993,0,-5C0.6752273130561502,-4.8745387340854505,1.5877132402714709,-0.7500000000000009,0.8660254037844387,0.4999999999999998" stroke="#7f7f7f" fill="#7f7f7f" fill-opacity="0.5"/><g id="dots"><circle cx="3.061616997868383e-16" cy="-5" r="1" stroke="none" fill="#7f7f7f"/><circle cx="0.8660254037844387" cy="0.49999999999999983" r="1" stroke="none" fill="#7f7f7f"/><circle cx="-4.330127018922193" cy="2.5000000000000018" r="1" stroke="none" fill="#7f7f7f"/></g></g><g id="6"><path d="M1.7320508075688774,0.9999999999999996C1.0901020654522664,2.1824330269570043,-3.872615658497884,3.1506421869236094,-4.330127018922192,2.500000000000002C-4.841771376944732,1.772373469104301,-1.0364065029222909,-4.132434807994428,0,-4C0.8530749284278346,-3.8909917932465232,2.3229640304175416,-0.08842850670302103,1.7320508075688774,0.9999999999999996" stroke="#d62728" fill="#d62728" fill-opacity="0.5"/><g id="dots"><circle cx="2.4492935982947064e-16" cy="-4" r="1" stroke="none" fill="#d62728"/><circle cx="1.7320508075688774" cy="0.9999999999999997" r="1" stroke="none" fill="#d62728"/><circle cx="-4.330127018922193" cy="2.5000000000000018" r="1" stroke="none" fill="#d62728"/></g></g><g id="7"><path d="M4.330127018922194,2.499999999999999C3.8717336876015502,3.7390072157363567,-5.645767690593024,4.441618590099236,-6.062177826491069,3.500000000000003C-6.430886512143681,2.666247593870871,-1.8241589044283273,-2.0618803935128636,0,-2C1.5933460885958253,-1.9459494001727926,4.68465279646465,1.5417399937426526,4.330127018922194,2.499999999999999" stroke="#ff7f0e" fill="#ff7f0e" fill-opacity="0.5"/><g id="dots"><circle cx="1.2246467991473532e-16" cy="-2" r="1" stroke="none" fill="#ff7f0e"/><circle cx="4.330127018922194" cy="2.499999999999999" r="1" stroke="none" fill="#ff7f0e"/><circle cx="-6.0621778264910695" cy="3.500000000000002" r="1" stroke="none" fill="#ff7f0e"/></g></g><g id="8"><path d="M59.75575286112627,34.499999999999986C57.067987940835444,44.05987340243806,-59.64842851385768,45.213461749746195,-62.35382907247956,36.00000000000003C-64.45334689792331,28.849921200766733,-20.5586872165281,-3.015441747921481,0,-3C20.135297187857958,-2.984876262758206,61.798628535643594,27.23387613705701,59.75575286112627,34.499999999999986" stroke="#8c564b" fill="#8c564b" fill-opacity="0.5"/><g id="dots"><circle cx="1.8369701987210297e-16" cy="-3" r="1" stroke="none" fill="#8c564b"/><circle cx="59.75575286112627" cy="34.499999999999986" r="1" stroke="none" fill="#8c564b"/><circle cx="-62.35382907247957" cy="36.00000000000002" r="1" stroke="none" fill="#8c564b"/></g></g></g></g><text x="5" y="5" style="font-family: Arial, sans-serif; font-size: 12px; fill: black; font-weight: bold; dominant-baseline: hanging;"/></g><g id="grid"><rect x="0" y="0" width="805" height="600" fill="none" stroke="#ccc"/></g><g id="legend" transform="translate(805,30)"><g transform="translate(5,0)"><g class="legendColor" transform="translate(0,0)"><g class="legendCells" transform="translate(0,15.833333015441895)"><g class="cell" transform="translate(0, 0)"><rect class="swatch" height="15" width="15" style="fill: rgb(31, 119, 180);"/><text class="label" transform="translate( 20, 12.5)" font-family="&quot;Arial&quot;, sans-serif" font-size="10px"><tspan x="0" dy="0em">China</tspan></text></g><g class="cell" transform="translate(0, 20.833333015441895)"><rect class="swatch" height="15" width="15" style="fill: rgb(255, 127, 14);"/><text class="label" transform="translate( 20, 12.5)" font-family="&quot;Arial&quot;, sans-serif" font-size="10px"><tspan x="0" dy="0em">France</tspan></text></g><g class="cell" transform="translate(0, 41.66666603088379)"><rect class="swatch" height="15" width="15" style="fill: rgb(44, 160, 44);"/><text class="label" transform="translate( 20, 12.5)" font-family="&quot;Arial&quot;, sans-serif" font-size="10px"><tspan x="0" dy="0em">Germany</tspan></text></g><g class="cell" transform="translate(0, 62.499999046325684)"><rect class="swatch" height="15" width="15" style="fill: rgb(214, 39, 40);"/><text class="label" transform="translate( 20, 12.5)" font-family="&quot;Arial&quot;, sans-serif" font-size="10px"><tspan x="0" dy="0em">Italy</tspan></text></g><g class="cell" transform="translate(0, 83.33333206176758)"><rect class="swatch" height="15" width="15" style="fill: rgb(148, 103, 189);"/><text class="label" transform="translate( 20, 12.5)" font-family="&quot;Arial&quot;, sans-serif" font-size="10px"><tspan x="0" dy="0em">Japan</tspan></text></g><g class="cell" transform="translate(0, 104.16666507720947)"><rect class="swatch" height="15" width="15" style="fill: rgb(140, 86, 75);"/><text class="label" transform="translate( 20, 12.5)" font-family="&quot;Arial&quot;, sans-serif" font-size="10px"><tspan x="0" dy="0em">Poland</tspan></text></g><g class="cell" transform="translate(0, 124.99999809265137)"><rect class="swatch" height="15" width="15" style="fill: rgb(227, 119, 194);"/><text class="label" transform="translate( 20, 12.5)" font-family="&quot;Arial&quot;, sans-serif" font-size="10px"><tspan x="0" dy="0em">Soviet Union</tspan></text></g><g class="cell" transform="translate(0, 145.83333110809326)"><rect class="swatch" height="15" width="15" style="fill: rgb(127, 127, 127);"/><text class="label" transform="translate( 20, 12.5)" font-family="&quot;Arial&quot;, sans-serif" font-size="10px"><tspan x="0" dy="0em">United Kingdom</tspan></text></g><g class="cell" transform="translate(0, 166.66666412353516)"><rect class="swatch" height="15" width="15" style="fill: rgb(188, 189, 34);"/><text class="label" transform="translate( 20, 12.5)" font-family="&quot;Arial&quot;, sans-serif" font-size="10px"><tspan x="0" dy="0em">United States</tspan></text></g></g><text class="legendTitle" font-family="&quot;Arial&quot;, sans-serif" font-size="12px" font-weight="bold"><tspan x="0" dy="0em">Country</tspan></text></g></g></g></svg>